<?xml version="1.0" encoding="utf-8"?>
<!-- Generator: Adobe Illustrator 23.0.1, SVG Export Plug-In . SVG Version: 6.00 Build 0)  -->
<svg version="1.1" id="Layer_1" xmlns="http://www.w3.org/2000/svg" xmlns:xlink="http://www.w3.org/1999/xlink" x="0px" y="0px"
	 viewBox="0 0 108.5 81.8" style="enable-background:new 0 0 108.5 81.8;" xml:space="preserve">
<style type="text/css">
	.st0{fill:#2E7A8C;}
</style>
<g>
	<path class="st0" d="M43,29.6c-0.7,0.1-1,0.1-1.2,0.1c-4.2,0.1-4.2,0.1-5.2,4.1c-2.7,10.8-5.3,21.6-9.9,31.7
		c-1.7,3.9-4,7.6-6.4,11.1c-4.5,6.4-12,5.7-17.5,3.2c-2.2-1-3.2-3-2.8-5.4c0.3-1.7,0.8-3.5,1.7-5c1.2-2.2,3.1-2.2,4.7-0.3
		c0.7,0.9,1.2,1.9,1.7,2.9c0.2,0.4,0.3,0.8,0.5,1.1c0.7,1.3,1.2,3.1,3,3.2c1.9,0.1,2.6-1.6,3.1-3c2.5-6.6,5.1-13.1,7.2-19.8
		c2.2-7,3.9-14.2,5.8-21.3c0.7-2.6,0.5-2.8-2.2-2.6c-0.9,0-1.8,0-2.7,0c-2.3-0.2-2.6-0.5-2.4-2.8c0.1-1.2,0.5-1.8,1.8-1.8
		c1.9,0,3.7-0.1,5.6,0c0.4,0,2.3-0.3,2.3-0.3c0.7-0.4,0.8-1.5,1-1.9c2.1-5.2,5.9-11.6,9.5-15.8c2.2-2.6,3.4-3.7,6.3-5.5
		c4.4-2.7,9.6-1.7,13.9,0.5c3.2,1.6,3.6,5.7,1.1,8.3c-1.8,1.9-3.8,1.8-5.4-0.2c-0.8-1-1.4-2.2-2.1-3.3c-1.6-2.2-3.5-2.5-5.2-0.4
		c-1.9,2.3-3.5,4.8-4.9,7.5c-1.6,3-2.8,6.2-4.1,9.3c-0.5,1.2-0.2,1.7,1.1,1.6c1.5,0,3.1,0,4.6,0c1.8-0.1,1.9,1,1.9,2.4
		c0,1.4-0.4,2.4-2,2.3C44.7,29.7,43.6,29.7,43,29.6z"/>
	<path class="st0" d="M69.5,38.3c2-0.5,3.2,0.6,4,2.8c1,2.6,2.3,5.2,3.5,7.7c1,2.1,1,2.1,2.4,0.3c2.2-2.8,4.4-5.6,6.6-8.4
		c1.7-2.2,5.2-3.3,7.8-2.3c1.2,0.5,0.5,1.1,0,1.6c-2.4,2.7-4.8,5.5-7.2,8.2c-1.6,1.8-3.2,3.7-4.8,5.5c-1,1.1-1.1,2.2-0.4,3.5
		c2,4.3,3.9,8.7,5.8,13.1c0.9,2.2,0.7,2.5-1.7,2.5c-3.5,0.1-3.5,0.1-5-3.2c-1.3-3-2.6-5.9-3.9-8.9c-0.5-1.1-0.8-1.2-1.6-0.2
		c-2.8,3.6-5.6,7.1-8.4,10.7c-1.1,1.3-5.8,2.3-7.1,1.3c-0.2-0.2-0.1-1.2,0.2-1.5c1.6-2,3.3-4,5-5.9c2.4-2.8,4.7-5.5,7.2-8.2
		c1.1-1.2,1.4-2.3,0.5-3.9c-2-3.7-3.8-7.5-5.7-11.3C65.2,38.3,65.3,38.2,69.5,38.3z"/>
	<path class="st0" d="M62.5,25c0.4,0,0.6,0,0.7,0c0.6,0.1,1.2,0.2,1.8,0.3c-0.3,0.5-0.6,1.1-0.9,1.6c-7,8.3-12,17.5-13.6,28.3
		c-1.1,7.7-0.5,15.2,2.4,22.4c0.1,0.3,0.3,0.6,0.4,0.9c0.1,1,1.6,2,0.2,2.9c-1.4,0.9-3.9,0-4.6-1.5c-2-4.1-3.3-8.5-3.6-13
		c-1-12.9,2.2-24.7,9.6-35.3c1.2-1.7,2.5-3.1,3.7-4.8C59.7,25.4,61,24.7,62.5,25z"/>
	<path class="st0" d="M103.6,45.6c0-6.9-1.3-12.3-3.2-17.6c-0.3-0.9-1.7-2-0.2-2.8c1.5-0.8,3.9-0.1,4.4,1.4
		c1.3,3.7,2.8,7.3,3.4,11.1c2.3,15.8-2.8,29.5-12.6,41.7c-1.5,1.8-3.2,2.6-5.5,2.3c-0.5-0.1-0.9-0.2-1.3-0.3
		c0.2-0.4,0.3-0.9,0.6-1.2c2.4-3.4,5-6.6,7.1-10.1C101,62.1,103.6,53.6,103.6,45.6z"/>
</g>
</svg>
